<?xml version="1.0" standalone="no" ?>
<!DOCTYPE svg PUBLIC "-//W3C//DTD SVG 1.1//EN" "http://www.w3.org/Graphics/SVG/1.1/DTD/svg11.dtd">
<svg width="567px" height="756px" xmlns="http://www.w3.org/2000/svg" version="1.1" >
	<circle cx="64" cy="304" r="2.94118" fill="rgb(2,3,0)" />
	<circle cx="162" cy="50" r="3" fill="rgb(0,0,0)" />
	<circle cx="347" cy="251" r="1.00671" fill="rgb(195,200,195)" />
	<circle cx="134" cy="481" r="2.5641" fill="rgb(18,19,7)" />
	<circle cx="213" cy="207" r="2.7027" fill="rgb(11,12,5)" />
	<circle cx="529" cy="465" r="2.45902" fill="rgb(24,24,6)" />
	<circle cx="513" cy="213" r="2.7027" fill="rgb(12,12,2)" />
	<circle cx="198" cy="184" r="1.70455" fill="rgb(76,78,69)" />
	<circle cx="434" cy="376" r="1.35747" fill="rgb(120,123,111)" />
	<circle cx="205" cy="308" r="3" fill="rgb(0,0,0)" />
	<circle cx="413" cy="9" r="2.7027" fill="rgb(12,12,1)" />
	<circle cx="135" cy="159" r="2.67857" fill="rgb(13,13,3)" />
	<circle cx="444" cy="161" r="2.32558" fill="rgb(30,31,18)" />
	<circle cx="484" cy="358" r="2.41935" fill="rgb(25,26,9)" />
	<circle cx="486" cy="90" r="2.83019" fill="rgb(7,7,0)" />
	<circle cx="125" cy="352" r="2.41935" fill="rgb(24,25,13)" />
	<circle cx="452" cy="420" r="2.27273" fill="rgb(33,34,17)" />
	<circle cx="16" cy="532" r="2.83019" fill="rgb(6,6,2)" />
	<circle cx="118" cy="116" r="3" fill="rgb(0,0,0)" />
	<circle cx="85" cy="579" r="2.04082" fill="rgb(49,50,31)" />
	<circle cx="534" cy="196" r="2.77778" fill="rgb(9,9,0)" />
	<circle cx="231" cy="75" r="1.23967" fill="rgb(141,144,134)" />
	<circle cx="519" cy="703" r="2.65487" fill="rgb(14,14,5)" />
	<circle cx="86" cy="252" r="2.88462" fill="rgb(4,4,1)" />
	<circle cx="439" cy="288" r="1.53846" fill="rgb(95,97,85)" />
	<circle cx="86" cy="734" r="2.18978" fill="rgb(38,39,21)" />
	<circle cx="507" cy="452" r="2.5641" fill="rgb(18,19,4)" />
	<circle cx="207" cy="380" r="2.85714" fill="rgb(5,5,0)" />
	<circle cx="184" cy="78" r="2.77778" fill="rgb(8,9,1)" />
	<circle cx="428" cy="70" r="2.72727" fill="rgb(11,11,1)" />
	<circle cx="473" cy="313" r="2.30769" fill="rgb(31,32,14)" />
	<circle cx="222" cy="407" r="2.67857" fill="rgb(13,13,1)" />
	<circle cx="489" cy="317" r="2.65487" fill="rgb(14,15,1)" />
	<circle cx="504" cy="332" r="2.77778" fill="rgb(8,8,4)" />
	<circle cx="488" cy="140" r="2.72727" fill="rgb(11,11,1)" />
	<circle cx="349" cy="390" r="1.32159" fill="rgb(126,129,117)" />
	<circle cx="363" cy="45" r="1.81818" fill="rgb(66,67,53)" />
	<circle cx="474" cy="513" r="2.85714" fill="rgb(6,6,0)" />
	<circle cx="467" cy="129" r="2.83019" fill="rgb(6,7,0)" />
	<circle cx="96" cy="38" r="3" fill="rgb(0,0,0)" />
	<circle cx="410" cy="93" r="2.27273" fill="rgb(33,34,17)" />
	<circle cx="496" cy="14" r="2.67857" fill="rgb(13,14,1)" />
	<circle cx="309" cy="585" r="2.83019" fill="rgb(7,7,0)" />
	<circle cx="103" cy="506" r="2.25564" fill="rgb(34,35,19)" />
	<circle cx="294" cy="737" r="1.97368" fill="rgb(52,54,40)" />
	<circle cx="436" cy="673" r="2.32558" fill="rgb(30,31,13)" />
	<circle cx="13" cy="504" r="2.54237" fill="rgb(19,19,6)" />
	<circle cx="358" cy="314" r="0.983607" fill="rgb(202,207,202)" />
	<circle cx="474" cy="542" r="2.72727" fill="rgb(11,11,3)" />
	<circle cx="132" cy="627" r="2.5" fill="rgb(21,21,8)" />
	<circle cx="557" cy="287" r="2.85714" fill="rgb(6,6,0)" />
	<circle cx="392" cy="534" r="1.81818" fill="rgb(66,67,53)" />
	<circle cx="223" cy="528" r="2.6087" fill="rgb(16,17,7)" />
	<circle cx="166" cy="381" r="2.4" fill="rgb(28,28,3)" />
	<circle cx="154" cy="570" r="2.11268" fill="rgb(43,44,27)" />
	<circle cx="179" cy="223" r="2.9703" fill="rgb(1,1,0)" />
	<circle cx="401" cy="437" r="1.35747" fill="rgb(120,123,111)" />
	<circle cx="372" cy="600" r="2" fill="rgb(50,52,35)" />
	<circle cx="185" cy="398" r="2.58621" fill="rgb(18,18,1)" />
	<circle cx="20" cy="702" r="2.5" fill="rgb(21,22,10)" />
	<circle cx="304" cy="673" r="2.5" fill="rgb(21,22,7)" />
	<circle cx="447" cy="476" r="2.83019" fill="rgb(6,7,1)" />
	<circle cx="342" cy="184" r="1.67598" fill="rgb(79,81,65)" />
	<circle cx="511" cy="132" r="2.75229" fill="rgb(10,11,1)" />
	<circle cx="405" cy="590" r="2.47934" fill="rgb(23,23,5)" />
	<circle cx="171" cy="296" r="2.5641" fill="rgb(18,18,7)" />
	<circle cx="225" cy="385" r="2.9703" fill="rgb(1,1,0)" />
	<circle cx="155" cy="359" r="2.47934" fill="rgb(24,23,1)" />
	<circle cx="165" cy="115" r="2.94118" fill="rgb(2,2,0)" />
	<circle cx="269" cy="671" r="2.80374" fill="rgb(7,8,1)" />
	<circle cx="445" cy="92" r="2.75229" fill="rgb(10,10,0)" />
	<circle cx="324" cy="487" r="2.01342" fill="rgb(49,51,36)" />
	<circle cx="416" cy="738" r="2.5" fill="rgb(22,22,6)" />
	<circle cx="240" cy="212" r="1.32743" fill="rgb(126,128,119)" />
	<circle cx="40" cy="16" r="3" fill="rgb(0,0,0)" />
	<circle cx="427" cy="89" r="2.77778" fill="rgb(8,9,0)" />
	<circle cx="260" cy="630" r="2.85714" fill="rgb(5,5,1)" />
	<circle cx="457" cy="706" r="2.45902" fill="rgb(23,24,10)" />
	<circle cx="245" cy="501" r="2.80374" fill="rgb(8,8,1)" />
	<circle cx="485" cy="255" r="2.25564" fill="rgb(34,35,19)" />
	<circle cx="233" cy="145" r="1.02389" fill="rgb(190,194,189)" />
	<circle cx="480" cy="634" r="2.29008" fill="rgb(32,33,18)" />
	<circle cx="306" cy="8" r="2.47934" fill="rgb(22,22,9)" />
	<circle cx="552" cy="499" r="2.7027" fill="rgb(12,12,2)" />
	<circle cx="197" cy="506" r="2.77778" fill="rgb(8,9,4)" />
	<circle cx="91" cy="620" r="2.43902" fill="rgb(23,24,14)" />
	<circle cx="11" cy="279" r="2.94118" fill="rgb(2,2,0)" />
	<circle cx="258" cy="477" r="2.80374" fill="rgb(8,8,0)" />
	<circle cx="11" cy="560" r="2.83019" fill="rgb(7,7,3)" />
	<circle cx="486" cy="336" r="2.52101" fill="rgb(20,21,4)" />
	<circle cx="128" cy="438" r="2.25564" fill="rgb(34,35,18)" />
	<circle cx="16" cy="663" r="2.38095" fill="rgb(26,27,17)" />
	<circle cx="532" cy="80" r="2.72727" fill="rgb(11,12,0)" />
	<circle cx="407" cy="116" r="1.66667" fill="rgb(81,83,66)" />
	<circle cx="190" cy="472" r="2.27273" fill="rgb(33,34,17)" />
	<circle cx="64" cy="200" r="2.88462" fill="rgb(4,5,1)" />
	<circle cx="521" cy="323" r="2.54237" fill="rgb(19,19,7)" />
	<circle cx="57" cy="631" r="1.93548" fill="rgb(56,58,38)" />
	<circle cx="550" cy="688" r="2.85714" fill="rgb(6,6,1)" />
	<circle cx="54" cy="537" r="1.98676" fill="rgb(52,54,33)" />
	<circle cx="492" cy="397" r="3" fill="rgb(0,1,0)" />
	<circle cx="453" cy="609" r="2.29008" fill="rgb(33,34,15)" />
	<circle cx="160" cy="30" r="3" fill="rgb(0,0,0)" />
	<circle cx="431" cy="434" r="1.89873" fill="rgb(59,60,43)" />
	<circle cx="391" cy="503" r="1.57068" fill="rgb(91,93,79)" />
	<circle cx="57" cy="394" r="2.54237" fill="rgb(19,20,8)" />
	<circle cx="555" cy="345" r="2.75229" fill="rgb(9,10,2)" />
	<circle cx="464" cy="209" r="2.17391" fill="rgb(39,40,24)" />
	<circle cx="212" cy="469" r="2.6087" fill="rgb(16,17,4)" />
	<circle cx="141" cy="53" r="3" fill="rgb(0,1,0)" />
	<circle cx="19" cy="398" r="2.32558" fill="rgb(30,31,16)" />
	<circle cx="420" cy="560" r="2.72727" fill="rgb(11,11,1)" />
	<circle cx="112" cy="163" r="2.85714" fill="rgb(5,5,2)" />
	<circle cx="555" cy="156" r="2.80374" fill="rgb(8,8,0)" />
	<circle cx="328" cy="28" r="1.52284" fill="rgb(97,99,84)" />
	<circle cx="554" cy="410" r="2.43902" fill="rgb(24,24,12)" />
	<circle cx="255" cy="456" r="2.83019" fill="rgb(7,7,0)" />
	<circle cx="497" cy="486" r="2.5" fill="rgb(21,22,5)" />
	<circle cx="554" cy="237" r="2.85714" fill="rgb(5,5,0)" />
	<circle cx="47" cy="671" r="2.38095" fill="rgb(27,27,12)" />
	<circle cx="113" cy="188" r="2.83019" fill="rgb(7,7,1)" />
	<circle cx="188" cy="336" r="2.32558" fill="rgb(30,31,16)" />
	<circle cx="533" cy="170" r="2.80374" fill="rgb(8,8,0)" />
	<circle cx="364" cy="572" r="1.80723" fill="rgb(67,69,52)" />
	<circle cx="110" cy="378" r="2.77778" fill="rgb(8,9,2)" />
	<circle cx="76" cy="492" r="2.29008" fill="rgb(32,33,18)" />
	<circle cx="482" cy="294" r="2.63158" fill="rgb(15,16,3)" />
	<circle cx="424" cy="313" r="1.19048" fill="rgb(150,154,144)" />
	<circle cx="226" cy="28" r="2.47934" fill="rgb(22,23,8)" />
	<circle cx="370" cy="680" r="2.41935" fill="rgb(26,26,9)" />
	<circle cx="374" cy="72" r="1.47059" fill="rgb(104,106,93)" />
	<circle cx="255" cy="575" r="2.91262" fill="rgb(3,4,0)" />
	<circle cx="148" cy="138" r="2.77778" fill="rgb(8,9,2)" />
	<circle cx="312" cy="249" r="1.17647" fill="rgb(154,157,149)" />
	<circle cx="333" cy="69" r="1.05263" fill="rgb(183,187,181)" />
	<circle cx="65" cy="171" r="3" fill="rgb(0,0,0)" />
	<circle cx="226" cy="557" r="2.83019" fill="rgb(6,6,1)" />
	<circle cx="422" cy="512" r="2.41935" fill="rgb(25,26,12)" />
	<circle cx="34" cy="341" r="2.52101" fill="rgb(20,20,7)" />
	<circle cx="104" cy="466" r="2.45902" fill="rgb(23,24,9)" />
	<circle cx="136" cy="290" r="1.98676" fill="rgb(52,53,35)" />
	<circle cx="510" cy="102" r="2.72727" fill="rgb(11,11,1)" />
	<circle cx="512" cy="188" r="2.77778" fill="rgb(9,9,1)" />
	<circle cx="271" cy="503" r="2.85714" fill="rgb(6,6,0)" />
	<circle cx="51" cy="255" r="2.54237" fill="rgb(19,20,10)" />
	<circle cx="200" cy="705" r="2.5641" fill="rgb(18,19,6)" />
	<circle cx="209" cy="738" r="2.63158" fill="rgb(15,16,3)" />
	<circle cx="153" cy="412" r="1.875" fill="rgb(61,63,41)" />
	<circle cx="128" cy="34" r="2.41935" fill="rgb(25,25,15)" />
	<circle cx="366" cy="10" r="2.38095" fill="rgb(27,28,13)" />
	<circle cx="221" cy="350" r="3" fill="rgb(0,0,0)" />
	<circle cx="90" cy="410" r="2.72727" fill="rgb(10,11,4)" />
	<circle cx="208" cy="342" r="2.94118" fill="rgb(3,3,0)" />
	<circle cx="98" cy="140" r="2.9703" fill="rgb(1,1,0)" />
	<circle cx="118" cy="11" r="3" fill="rgb(0,0,0)" />
	<circle cx="120" cy="208" r="2.6087" fill="rgb(16,17,4)" />
	<circle cx="403" cy="352" r="1.06383" fill="rgb(180,184,178)" />
	<circle cx="359" cy="191" r="2.11268" fill="rgb(43,44,34)" />
	<circle cx="192" cy="673" r="2.4" fill="rgb(26,27,11)" />
	<circle cx="68" cy="364" r="2.85714" fill="rgb(5,5,1)" />
	<circle cx="136" cy="225" r="2.65487" fill="rgb(14,14,2)" />
	<circle cx="229" cy="613" r="2.45902" fill="rgb(23,24,13)" />
	<circle cx="347" cy="201" r="2.25564" fill="rgb(33,34,21)" />
	<circle cx="11" cy="317" r="2.75229" fill="rgb(10,10,2)" />
	<circle cx="335" cy="213" r="1.42857" fill="rgb(110,112,100)" />
	<circle cx="114" cy="653" r="2.43902" fill="rgb(24,25,12)" />
	<circle cx="167" cy="515" r="1.76471" fill="rgb(71,73,56)" />
	<circle cx="498" cy="280" r="2.34375" fill="rgb(29,30,14)" />
	<circle cx="192" cy="208" r="2.80374" fill="rgb(7,7,4)" />
	<circle cx="274" cy="70" r="1.03448" fill="rgb(187,192,186)" />
	<circle cx="307" cy="558" r="2.77778" fill="rgb(8,9,1)" />
	<circle cx="17" cy="737" r="2.5" fill="rgb(21,22,10)" />
	<circle cx="263" cy="418" r="1.38249" fill="rgb(116,118,113)" />
	<circle cx="503" cy="305" r="2.5" fill="rgb(21,22,11)" />
	<circle cx="90" cy="192" r="2.72727" fill="rgb(10,11,3)" />
	<circle cx="389" cy="707" r="2.54237" fill="rgb(19,19,7)" />
	<circle cx="555" cy="59" r="2.72727" fill="rgb(10,11,1)" />
	<circle cx="253" cy="551" r="2.88462" fill="rgb(4,4,1)" />
	<circle cx="40" cy="370" r="2.47934" fill="rgb(23,23,8)" />
	<circle cx="221" cy="366" r="2.9703" fill="rgb(1,1,0)" />
	<circle cx="446" cy="552" r="2.6087" fill="rgb(16,17,5)" />
	<circle cx="198" cy="536" r="2.65487" fill="rgb(14,14,5)" />
	<circle cx="296" cy="508" r="2.94118" fill="rgb(2,3,0)" />
	<circle cx="202" cy="54" r="2.47934" fill="rgb(22,23,10)" />
	<circle cx="476" cy="274" r="2.6087" fill="rgb(16,16,8)" />
	<circle cx="232" cy="322" r="1.06383" fill="rgb(179,184,179)" />
	<circle cx="473" cy="193" r="2.85714" fill="rgb(5,5,1)" />
	<circle cx="333" cy="571" r="2.25564" fill="rgb(34,35,19)" />
	<circle cx="301" cy="30" r="1.41509" fill="rgb(111,114,101)" />
	<circle cx="199" cy="9" r="2.9703" fill="rgb(1,2,0)" />
	<circle cx="120" cy="562" r="2.52101" fill="rgb(20,20,8)" />
	<circle cx="449" cy="184" r="2.11268" fill="rgb(43,44,28)" />
	<circle cx="539" cy="294" r="2.80374" fill="rgb(7,8,1)" />
	<circle cx="88" cy="308" r="2.88462" fill="rgb(4,4,0)" />
	<circle cx="113" cy="93" r="2.9703" fill="rgb(1,1,0)" />
	<circle cx="520" cy="276" r="2.7027" fill="rgb(11,12,2)" />
	<circle cx="15" cy="596" r="2.4" fill="rgb(26,27,13)" />
	<circle cx="118" cy="405" r="2.83019" fill="rgb(7,7,2)" />
	<circle cx="504" cy="44" r="2.67857" fill="rgb(13,14,1)" />
	<circle cx="315" cy="221" r="1.32159" fill="rgb(127,129,118)" />
	<circle cx="314" cy="532" r="2.85714" fill="rgb(5,6,0)" />
	<circle cx="36" cy="567" r="2.3622" fill="rgb(28,29,12)" />
	<circle cx="251" cy="736" r="2.30769" fill="rgb(31,32,19)" />
	<circle cx="533" cy="143" r="2.80374" fill="rgb(8,8,0)" />
	<circle cx="223" cy="49" r="1.91083" fill="rgb(57,59,42)" />
	<circle cx="190" cy="148" r="2.05479" fill="rgb(46,47,39)" />
	<circle cx="206" cy="325" r="3" fill="rgb(0,0,0)" />
	<circle cx="348" cy="627" r="2.08333" fill="rgb(45,47,29)" />
	<circle cx="88" cy="164" r="2.9703" fill="rgb(1,1,0)" />
	<circle cx="327" cy="7" r="2.67857" fill="rgb(13,14,3)" />
	<circle cx="397" cy="142" r="1.2766" fill="rgb(134,137,126)" />
	<circle cx="361" cy="544" r="1.77515" fill="rgb(69,71,54)" />
	<circle cx="406" cy="260" r="1.04895" fill="rgb(183,188,182)" />
	<circle cx="112" cy="61" r="2.38095" fill="rgb(27,27,16)" />
	<circle cx="379" cy="28" r="2.38095" fill="rgb(27,27,13)" />
	<circle cx="11" cy="361" r="2.65487" fill="rgb(14,15,3)" />
	<circle cx="356" cy="715" r="2.54237" fill="rgb(19,19,5)" />
	<circle cx="450" cy="230" r="1.7341" fill="rgb(73,75,59)" />
	<circle cx="422" cy="487" r="2.01342" fill="rgb(50,51,35)" />
	<circle cx="468" cy="573" r="2.5641" fill="rgb(18,18,5)" />
	<circle cx="93" cy="437" r="2.38095" fill="rgb(26,27,19)" />
	<circle cx="63" cy="702" r="2.75229" fill="rgb(9,9,1)" />
	<circle cx="124" cy="138" r="2.88462" fill="rgb(4,5,0)" />
	<circle cx="39" cy="175" r="2.83019" fill="rgb(6,6,3)" />
	<circle cx="283" cy="585" r="2.85714" fill="rgb(6,6,0)" />
	<circle cx="394" cy="469" r="1.52284" fill="rgb(97,99,85)" />
	<circle cx="312" cy="613" r="2.67857" fill="rgb(13,13,3)" />
	<circle cx="488" cy="115" r="2.77778" fill="rgb(9,9,0)" />
	<circle cx="507" cy="72" r="2.72727" fill="rgb(11,11,1)" />
	<circle cx="126" cy="738" r="2.3622" fill="rgb(28,29,14)" />
	<circle cx="147" cy="11" r="2.47934" fill="rgb(22,22,14)" />
	<circle cx="166" cy="338" r="2.5641" fill="rgb(19,19,2)" />
	<circle cx="162" cy="93" r="2.91262" fill="rgb(3,3,0)" />
	<circle cx="541" cy="538" r="2.12766" fill="rgb(42,43,30)" />
	<circle cx="438" cy="204" r="1.68539" fill="rgb(78,81,64)" />
	<circle cx="96" cy="355" r="2.91262" fill="rgb(3,3,0)" />
	<circle cx="425" cy="28" r="2.7027" fill="rgb(12,12,1)" />
	<circle cx="492" cy="186" r="2.75229" fill="rgb(9,10,0)" />
	<circle cx="45" cy="499" r="2.5" fill="rgb(21,21,6)" />
	<circle cx="555" cy="444" r="2.75229" fill="rgb(10,10,4)" />
	<circle cx="449" cy="450" r="2.4" fill="rgb(26,27,14)" />
	<circle cx="92" cy="220" r="2.7027" fill="rgb(12,12,3)" />
	<circle cx="413" cy="204" r="2.18978" fill="rgb(38,39,26)" />
	<circle cx="338" cy="599" r="2.27273" fill="rgb(33,35,18)" />
	<circle cx="237" cy="659" r="2.3622" fill="rgb(28,29,17)" />
	<circle cx="161" cy="614" r="2.32558" fill="rgb(30,31,16)" />
	<circle cx="40" cy="50" r="3" fill="rgb(0,0,0)" />
	<circle cx="66" cy="464" r="2.5641" fill="rgb(18,18,8)" />
	<circle cx="192" cy="293" r="3" fill="rgb(0,0,0)" />
	<circle cx="242" cy="9" r="2.77778" fill="rgb(9,9,1)" />
	<circle cx="313" cy="707" r="2.11268" fill="rgb(42,44,27)" />
	<circle cx="521" cy="299" r="2.7027" fill="rgb(12,12,1)" />
	<circle cx="183" cy="100" r="2.85714" fill="rgb(5,5,1)" />
	<circle cx="538" cy="364" r="2.45902" fill="rgb(23,24,10)" />
	<circle cx="93" cy="118" r="2.9703" fill="rgb(1,1,0)" />
	<circle cx="318" cy="194" r="1.2" fill="rgb(148,152,142)" />
	<circle cx="273" cy="30" r="1.54639" fill="rgb(94,96,82)" />
	<circle cx="477" cy="38" r="2.83019" fill="rgb(7,7,0)" />
	<circle cx="353" cy="516" r="1.57895" fill="rgb(90,92,77)" />
	<circle cx="436" cy="582" r="2.5641" fill="rgb(18,19,5)" />
	<circle cx="438" cy="257" r="1.4218" fill="rgb(111,113,102)" />
	<circle cx="175" cy="181" r="2.83019" fill="rgb(7,7,1)" />
	<circle cx="497" cy="376" r="2.9703" fill="rgb(1,1,0)" />
	<circle cx="430" cy="408" r="1.47059" fill="rgb(104,106,93)" />
	<circle cx="462" cy="82" r="2.75229" fill="rgb(9,10,1)" />
	<circle cx="41" cy="228" r="2.91262" fill="rgb(3,3,1)" />
	<circle cx="146" cy="339" r="2.6087" fill="rgb(16,17,1)" />
	<circle cx="223" cy="430" r="2.58621" fill="rgb(18,18,3)" />
	<circle cx="375" cy="649" r="2.27273" fill="rgb(34,35,17)" />
	<circle cx="55" cy="428" r="2.23881" fill="rgb(35,36,19)" />
	<circle cx="557" cy="315" r="2.83019" fill="rgb(6,7,0)" />
	<circle cx="247" cy="34" r="1.71429" fill="rgb(75,77,61)" />
	<circle cx="421" cy="535" r="2.5" fill="rgb(21,21,8)" />
	<circle cx="555" cy="127" r="2.80374" fill="rgb(7,7,0)" />
	<circle cx="427" cy="139" r="1.88679" fill="rgb(60,61,41)" />
	<circle cx="88" cy="92" r="2.54237" fill="rgb(19,19,10)" />
	<circle cx="389" cy="9" r="2.77778" fill="rgb(9,9,0)" />
	<circle cx="48" cy="594" r="2.04082" fill="rgb(49,50,30)" />
	<circle cx="526" cy="346" r="2.47934" fill="rgb(22,23,10)" />
	<circle cx="188" cy="378" r="2.58621" fill="rgb(17,18,3)" />
	<circle cx="186" cy="124" r="2.47934" fill="rgb(21,22,14)" />
	<circle cx="13" cy="129" r="3" fill="rgb(0,0,0)" />
	<circle cx="14" cy="430" r="2.47934" fill="rgb(23,23,8)" />
	<circle cx="523" cy="497" r="2.25564" fill="rgb(34,35,16)" />
	<circle cx="352" cy="442" r="1.09489" fill="rgb(172,176,168)" />
	<circle cx="229" cy="452" r="2.47934" fill="rgb(23,23,6)" />
	<circle cx="192" cy="566" r="2.47934" fill="rgb(22,22,9)" />
	<circle cx="480" cy="64" r="2.80374" fill="rgb(7,7,0)" />
	<circle cx="501" cy="234" r="2.7027" fill="rgb(11,12,2)" />
	<circle cx="156" cy="159" r="2.85714" fill="rgb(5,5,1)" />
	<circle cx="448" cy="138" r="2.77778" fill="rgb(9,9,1)" />
	<circle cx="71" cy="142" r="2.94118" fill="rgb(2,2,0)" />
	<circle cx="476" cy="231" r="2.3622" fill="rgb(28,29,15)" />
	<circle cx="285" cy="614" r="2.83019" fill="rgb(7,7,0)" />
	<circle cx="423" cy="705" r="2.65487" fill="rgb(14,14,2)" />
	<circle cx="466" cy="106" r="2.80374" fill="rgb(7,7,0)" />
	<circle cx="530" cy="412" r="2.80374" fill="rgb(7,8,1)" />
	<circle cx="185" cy="421" r="2.18978" fill="rgb(39,40,17)" />
	<circle cx="555" cy="183" r="2.80374" fill="rgb(8,8,0)" />
	<circle cx="239" cy="400" r="2.94118" fill="rgb(2,2,0)" />
	<circle cx="457" cy="272" r="2.25564" fill="rgb(33,34,23)" />
	<circle cx="200" cy="360" r="2.72727" fill="rgb(11,11,2)" />
	<circle cx="472" cy="407" r="2.80374" fill="rgb(8,8,2)" />
	<circle cx="138" cy="95" r="2.94118" fill="rgb(2,2,0)" />
	<circle cx="463" cy="253" r="2.34375" fill="rgb(29,30,15)" />
	<circle cx="297" cy="348" r="1.11524" fill="rgb(167,171,163)" />
	<circle cx="452" cy="34" r="2.67857" fill="rgb(13,13,1)" />
	<circle cx="39" cy="84" r="3" fill="rgb(0,0,0)" />
	<circle cx="533" cy="113" r="2.77778" fill="rgb(9,9,0)" />
	<circle cx="72" cy="279" r="2.9703" fill="rgb(1,2,0)" />
	<circle cx="347" cy="363" r="1.28205" fill="rgb(133,136,126)" />
	<circle cx="146" cy="246" r="2.77778" fill="rgb(9,9,1)" />
	<circle cx="208" cy="267" r="1.19522" fill="rgb(150,153,147)" />
	<circle cx="293" cy="454" r="1.23967" fill="rgb(140,143,138)" />
	<circle cx="183" cy="30" r="2.9703" fill="rgb(1,1,0)" />
	<circle cx="504" cy="353" r="2.9703" fill="rgb(2,2,0)" />
	<circle cx="402" cy="676" r="2.5" fill="rgb(21,22,5)" />
	<circle cx="68" cy="45" r="3" fill="rgb(0,0,0)" />
	<circle cx="535" cy="388" r="2.63158" fill="rgb(15,15,8)" />
	<circle cx="280" cy="557" r="2.91262" fill="rgb(3,3,0)" />
	<circle cx="168" cy="739" r="2.6087" fill="rgb(16,16,4)" />
	<circle cx="204" cy="104" r="1.63043" fill="rgb(84,86,71)" />
	<circle cx="230" cy="188" r="1.68539" fill="rgb(78,80,66)" />
	<circle cx="448" cy="526" r="2.5641" fill="rgb(19,19,4)" />
	<circle cx="43" cy="144" r="2.7027" fill="rgb(12,12,6)" />
	<circle cx="263" cy="9" r="2.52101" fill="rgb(20,20,7)" />
	<circle cx="170" cy="316" r="2.29008" fill="rgb(34,34,10)" />
	<circle cx="379" cy="211" r="1.41509" fill="rgb(112,114,105)" />
	<circle cx="485" cy="440" r="2.75229" fill="rgb(10,10,1)" />
	<circle cx="338" cy="741" r="2.38095" fill="rgb(28,28,10)" />
	<circle cx="535" cy="221" r="2.75229" fill="rgb(10,10,1)" />
	<circle cx="284" cy="645" r="2.80374" fill="rgb(8,8,0)" />
	<circle cx="25" cy="466" r="2.11268" fill="rgb(43,44,27)" />
	<circle cx="271" cy="528" r="2.91262" fill="rgb(4,4,0)" />
	<circle cx="275" cy="701" r="2.58621" fill="rgb(17,17,6)" />
	<circle cx="334" cy="544" r="2.3622" fill="rgb(28,28,13)" />
	<circle cx="160" cy="704" r="2.63158" fill="rgb(15,15,4)" />
	<circle cx="169" cy="138" r="2.88462" fill="rgb(4,4,1)" />
	<circle cx="177" cy="359" r="2.5641" fill="rgb(19,19,2)" />
	<circle cx="148" cy="203" r="2.52101" fill="rgb(20,20,7)" />
	<circle cx="148" cy="318" r="2.32558" fill="rgb(30,31,13)" />
	<circle cx="94" cy="13" r="3" fill="rgb(0,0,0)" />
	<circle cx="99" cy="279" r="2.91262" fill="rgb(3,3,0)" />
	<circle cx="42" cy="316" r="2.75229" fill="rgb(10,10,2)" />
	<circle cx="134" cy="182" r="2.63158" fill="rgb(15,15,3)" />
	<circle cx="16" cy="629" r="2.58621" fill="rgb(17,18,8)" />
	<circle cx="155" cy="662" r="2.5" fill="rgb(21,22,11)" />
	<circle cx="205" cy="30" r="2.94118" fill="rgb(3,3,0)" />
	<circle cx="300" cy="486" r="2.9703" fill="rgb(2,2,0)" />
	<circle cx="139" cy="380" r="2.14286" fill="rgb(42,43,24)" />
	<circle cx="401" cy="71" r="2.4" fill="rgb(26,27,13)" />
	<circle cx="478" cy="382" r="2.43902" fill="rgb(24,25,11)" />
	<circle cx="467" cy="461" r="2.77778" fill="rgb(9,9,2)" />
	<circle cx="241" cy="418" r="2.58621" fill="rgb(17,17,4)" />
	<circle cx="557" cy="376" r="2.75229" fill="rgb(9,10,2)" />
	<circle cx="156" cy="180" r="2.85714" fill="rgb(5,5,0)" />
	<circle cx="79" cy="668" r="2.67857" fill="rgb(13,13,4)" />
	<circle cx="453" cy="316" r="1.7341" fill="rgb(74,76,59)" />
	<circle cx="532" cy="436" r="2.58621" fill="rgb(18,18,4)" />
	<circle cx="13" cy="95" r="3" fill="rgb(0,0,0)" />
	<circle cx="92" cy="541" r="2.38095" fill="rgb(27,28,12)" />
	<circle cx="186" cy="257" r="3" fill="rgb(0,0,0)" />
	<circle cx="453" cy="740" r="2.80374" fill="rgb(8,8,1)" />
	<circle cx="184" cy="277" r="2.94118" fill="rgb(2,2,0)" />
	<circle cx="557" cy="261" r="2.88462" fill="rgb(5,5,0)" />
	<circle cx="13" cy="20" r="3" fill="rgb(0,0,0)" />
	<circle cx="388" cy="621" r="2.29008" fill="rgb(33,34,15)" />
	<circle cx="351" cy="26" r="2.14286" fill="rgb(41,42,26)" />
	<circle cx="430" cy="48" r="2.72727" fill="rgb(11,12,1)" />
	<circle cx="511" cy="660" r="2.88462" fill="rgb(4,4,0)" />
	<circle cx="467" cy="433" r="2.80374" fill="rgb(8,8,1)" />
	<circle cx="317" cy="305" r="1.2987" fill="rgb(130,133,122)" />
	<circle cx="164" cy="279" r="2.63158" fill="rgb(15,15,4)" />
	<circle cx="84" cy="385" r="2.72727" fill="rgb(10,11,4)" />
	<circle cx="183" cy="52" r="2.91262" fill="rgb(3,4,0)" />
	<circle cx="401" cy="30" r="2.83019" fill="rgb(7,7,0)" />
	<circle cx="555" cy="95" r="2.77778" fill="rgb(9,9,0)" />
	<circle cx="221" cy="9" r="2.9703" fill="rgb(1,1,0)" />
	<circle cx="500" cy="564" r="2.30769" fill="rgb(31,31,17)" />
	<circle cx="428" cy="111" r="2.54237" fill="rgb(19,19,6)" />
	<circle cx="63" cy="76" r="3" fill="rgb(0,0,0)" />
	<circle cx="126" cy="322" r="2.83019" fill="rgb(6,7,2)" />
	<circle cx="162" cy="454" r="1.82927" fill="rgb(65,67,46)" />
	<circle cx="518" cy="620" r="2.72727" fill="rgb(10,11,5)" />
	<circle cx="158" cy="225" r="2.7027" fill="rgb(11,12,3)" />
	<circle cx="247" cy="375" r="1.33333" fill="rgb(124,127,120)" />
	<circle cx="391" cy="92" r="1.71429" fill="rgb(76,77,62)" />
	<circle cx="218" cy="497" r="2.6087" fill="rgb(15,16,6)" />
	<circle cx="494" cy="738" r="2.63158" fill="rgb(15,15,5)" />
	<circle cx="390" cy="395" r="1.11524" fill="rgb(167,171,164)" />
	<circle cx="467" cy="337" r="2.04082" fill="rgb(48,50,31)" />
	<circle cx="468" cy="173" r="2.85714" fill="rgb(5,5,1)" />
	<circle cx="170" cy="261" r="2.9703" fill="rgb(2,2,0)" />
	<circle cx="487" cy="418" r="2.88462" fill="rgb(4,4,0)" />
	<circle cx="394" cy="565" r="2.0979" fill="rgb(44,45,29)" />
	<circle cx="68" cy="15" r="3" fill="rgb(0,0,0)" />
	<circle cx="123" cy="595" r="2.52101" fill="rgb(20,20,8)" />
	<circle cx="50" cy="737" r="2.65487" fill="rgb(14,14,3)" />
	<circle cx="487" cy="464" r="2.80374" fill="rgb(8,8,1)" />
	<circle cx="314" cy="641" r="2.4" fill="rgb(26,27,11)" />
	<circle cx="285" cy="9" r="2.52101" fill="rgb(20,21,7)" />
	<circle cx="176" cy="160" r="2.85714" fill="rgb(5,5,2)" />
	<circle cx="166" cy="244" r="3" fill="rgb(0,0,0)" />
	<circle cx="65" cy="111" r="2.65487" fill="rgb(13,13,6)" />
	<circle cx="39" cy="203" r="3" fill="rgb(0,0,0)" />
	<circle cx="132" cy="525" r="2.30769" fill="rgb(31,31,18)" />
	<circle cx="13" cy="189" r="2.83019" fill="rgb(6,6,2)" />
	<circle cx="373" cy="109" r="1.17647" fill="rgb(154,157,148)" />
	<circle cx="438" cy="642" r="2.34375" fill="rgb(30,31,12)" />
	<circle cx="399" cy="175" r="1.31004" fill="rgb(128,131,119)" />
	<circle cx="553" cy="19" r="2.65487" fill="rgb(14,15,2)" />
	<circle cx="168" cy="71" r="2.91262" fill="rgb(3,3,0)" />
	<circle cx="200" cy="443" r="2.47934" fill="rgb(23,23,6)" />
	<circle cx="551" cy="609" r="2.85714" fill="rgb(6,6,1)" />
	<circle cx="186" cy="240" r="3" fill="rgb(0,0,0)" />
	<circle cx="129" cy="75" r="3" fill="rgb(0,1,0)" />
	<circle cx="425" cy="460" r="1.79641" fill="rgb(67,69,52)" />
	<circle cx="345" cy="8" r="2.80374" fill="rgb(7,7,3)" />
	<circle cx="341" cy="657" r="2.17391" fill="rgb(39,40,23)" />
	<circle cx="548" cy="648" r="2.80374" fill="rgb(8,8,2)" />
	<circle cx="419" cy="613" r="2.63158" fill="rgb(15,15,3)" />
	<circle cx="313" cy="277" r="1.28755" fill="rgb(133,135,125)" />
	<circle cx="250" cy="437" r="2.67857" fill="rgb(13,13,3)" />
	<circle cx="525" cy="584" r="2.80374" fill="rgb(8,8,1)" />
	<circle cx="150" cy="265" r="2.67857" fill="rgb(13,13,2)" />
	<circle cx="525" cy="15" r="2.58621" fill="rgb(17,18,3)" />
	<circle cx="468" cy="12" r="2.83019" fill="rgb(7,7,0)" />
	<circle cx="544" cy="735" r="2.72727" fill="rgb(11,11,5)" />
	<circle cx="472" cy="667" r="2.54237" fill="rgb(19,20,7)" />
	<circle cx="13" cy="220" r="2.94118" fill="rgb(2,2,0)" />
	<circle cx="491" cy="210" r="2.83019" fill="rgb(7,7,1)" />
	<circle cx="330" cy="144" r="0.980392" fill="rgb(203,207,203)" />
	<circle cx="13" cy="159" r="3" fill="rgb(0,0,0)" />
	<circle cx="176" cy="10" r="2.94118" fill="rgb(2,2,1)" />
	<circle cx="508" cy="257" r="2.65487" fill="rgb(14,15,3)" />
	<circle cx="538" cy="264" r="2.83019" fill="rgb(6,6,0)" />
	<circle cx="441" cy="10" r="2.63158" fill="rgb(15,15,2)" />
	<circle cx="324" cy="513" r="2.47934" fill="rgb(21,22,11)" />
	<circle cx="490" cy="598" r="2.3622" fill="rgb(28,29,13)" />
	<circle cx="172" cy="202" r="2.85714" fill="rgb(6,6,0)" />
	<circle cx="192" cy="599" r="2.32558" fill="rgb(31,32,15)" />
	<circle cx="87" cy="65" r="2.88462" fill="rgb(4,4,1)" />
	<circle cx="515" cy="373" r="2.9703" fill="rgb(1,1,0)" />
	<circle cx="386" cy="50" r="2.29008" fill="rgb(32,33,18)" />
	<circle cx="556" cy="210" r="2.80374" fill="rgb(7,7,0)" />
	<circle cx="116" cy="247" r="1.82927" fill="rgb(65,66,47)" />
	<circle cx="488" cy="163" r="2.7027" fill="rgb(12,12,1)" />
	<circle cx="532" cy="47" r="2.63158" fill="rgb(15,16,2)" />
	<circle cx="512" cy="397" r="2.85714" fill="rgb(6,6,0)" />
	<circle cx="143" cy="116" r="2.85714" fill="rgb(6,6,1)" />
	<circle cx="489" cy="696" r="2.63158" fill="rgb(15,16,2)" />
	<circle cx="256" cy="601" r="2.83019" fill="rgb(6,6,1)" />
	<circle cx="421" cy="223" r="1.5625" fill="rgb(92,95,81)" />
	<circle cx="540" cy="322" r="2.75229" fill="rgb(10,11,2)" />
	<circle cx="205" cy="398" r="2.85714" fill="rgb(6,6,0)" />
	<circle cx="446" cy="116" r="2.77778" fill="rgb(9,9,0)" />
	<circle cx="204" cy="78" r="1.875" fill="rgb(61,63,46)" />
	<circle cx="235" cy="476" r="2.77778" fill="rgb(9,9,1)" />
	<circle cx="69" cy="228" r="2.63158" fill="rgb(15,16,7)" />
	<circle cx="200" cy="638" r="1.96078" fill="rgb(54,55,38)" />
	<circle cx="500" cy="524" r="2.4" fill="rgb(26,26,11)" />
	<circle cx="466" cy="152" r="2.83019" fill="rgb(7,7,0)" />
	<circle cx="36" cy="287" r="2.38095" fill="rgb(26,27,15)" />
	<circle cx="226" cy="584" r="2.85714" fill="rgb(5,5,1)" />
	<circle cx="408" cy="50" r="2.80374" fill="rgb(8,8,0)" />
	<circle cx="112" cy="301" r="2.94118" fill="rgb(2,3,0)" />
	<circle cx="358" cy="483" r="1.40187" fill="rgb(114,116,103)" />
	<circle cx="13" cy="59" r="3" fill="rgb(0,0,0)" />
	<circle cx="453" cy="59" r="2.75229" fill="rgb(10,10,0)" />
	<circle cx="292" cy="534" r="2.75229" fill="rgb(10,10,2)" />
	<circle cx="149" cy="73" r="2.9703" fill="rgb(1,2,0)" />
	<circle cx="274" cy="241" r="0.977199" fill="rgb(204,208,204)" />
	<circle cx="205" cy="419" r="2.72727" fill="rgb(11,11,1)" />
	<circle cx="462" cy="364" r="1.81818" fill="rgb(65,67,50)" />
	<circle cx="380" cy="741" r="2.5641" fill="rgb(18,19,6)" />
	<circle cx="279" cy="480" r="2.9703" fill="rgb(1,1,0)" />
	<circle cx="248" cy="526" r="2.94118" fill="rgb(2,2,0)" />
	<circle cx="447" cy="500" r="2.65487" fill="rgb(14,15,3)" />
	<circle cx="104" cy="329" r="2.91262" fill="rgb(3,4,0)" />
	<circle cx="339" cy="686" r="2.29008" fill="rgb(32,33,18)" />
	<circle cx="508" cy="424" r="2.52101" fill="rgb(20,21,6)" />
	<circle cx="15" cy="249" r="2.9703" fill="rgb(1,1,0)" />
	<circle cx="406" cy="645" r="2.58621" fill="rgb(17,17,4)" />
	<circle cx="189" cy="311" r="2.88462" fill="rgb(5,5,0)" />
	<circle cx="70" cy="336" r="2.5641" fill="rgb(18,18,8)" />
	<circle cx="238" cy="700" r="2.75229" fill="rgb(9,10,1)" />
	<circle cx="471" cy="487" r="2.75229" fill="rgb(9,10,2)" />
	<circle cx="553" cy="573" r="2.91262" fill="rgb(3,4,0)" />
	<circle cx="289" cy="303" r="1.07914" fill="rgb(176,180,173)" />
	<circle cx="527" cy="242" r="2.75229" fill="rgb(10,10,1)" />
	<circle cx="457" cy="392" r="1.80723" fill="rgb(67,68,51)" />
	<circle cx="554" cy="473" r="2.94118" fill="rgb(2,2,0)" />
	<circle cx="113" cy="696" r="2.18978" fill="rgb(39,40,22)" />
	<circle cx="205" cy="226" r="1.85185" fill="rgb(62,64,53)" />
	<circle cx="38" cy="114" r="3" fill="rgb(0,0,0)" />
	<circle cx="443" cy="344" r="1.46341" fill="rgb(105,107,94)" />
	<circle cx="511" cy="160" r="2.72727" fill="rgb(11,11,1)" />
	<circle cx="462" cy="292" r="2.0979" fill="rgb(44,46,29)" />
	<circle cx="303" cy="388" r="1.27119" fill="rgb(135,138,127)" />
</svg>
